G04 #@! TF.GenerationSoftware,KiCad,Pcbnew,(5.1.9)-1*
G04 #@! TF.CreationDate,2024-02-11T16:19:47+01:00*
G04 #@! TF.ProjectId,wemos_as_isp_0,77656d6f-735f-4617-935f-6973705f302e,rev?*
G04 #@! TF.SameCoordinates,Original*
G04 #@! TF.FileFunction,Copper,L1,Top*
G04 #@! TF.FilePolarity,Positive*
%FSLAX46Y46*%
G04 Gerber Fmt 4.6, Leading zero omitted, Abs format (unit mm)*
G04 Created by KiCad (PCBNEW (5.1.9)-1) date 2024-02-11 16:19:47*
%MOMM*%
%LPD*%
G01*
G04 APERTURE LIST*
G04 #@! TA.AperFunction,ComponentPad*
%ADD10O,1.600000X1.600000*%
G04 #@! TD*
G04 #@! TA.AperFunction,ComponentPad*
%ADD11R,1.600000X1.600000*%
G04 #@! TD*
G04 #@! TA.AperFunction,ComponentPad*
%ADD12C,1.600000*%
G04 #@! TD*
G04 #@! TA.AperFunction,ComponentPad*
%ADD13C,1.800000*%
G04 #@! TD*
G04 #@! TA.AperFunction,ComponentPad*
%ADD14R,1.800000X1.800000*%
G04 #@! TD*
G04 #@! TA.AperFunction,ComponentPad*
%ADD15O,2.000000X1.600000*%
G04 #@! TD*
G04 #@! TA.AperFunction,ComponentPad*
%ADD16R,2.000000X2.000000*%
G04 #@! TD*
G04 #@! TA.AperFunction,Conductor*
%ADD17C,0.406400*%
G04 #@! TD*
G04 APERTURE END LIST*
D10*
X141100000Y-68980000D03*
X148720000Y-76600000D03*
X143640000Y-68980000D03*
X146180000Y-76600000D03*
X146180000Y-68980000D03*
X143640000Y-76600000D03*
X148720000Y-68980000D03*
D11*
X141100000Y-76600000D03*
D10*
X148820000Y-81200000D03*
X141200000Y-96440000D03*
X148820000Y-83740000D03*
X141200000Y-93900000D03*
X148820000Y-86280000D03*
X141200000Y-91360000D03*
X148820000Y-88820000D03*
X141200000Y-88820000D03*
X148820000Y-91360000D03*
X141200000Y-86280000D03*
X148820000Y-93900000D03*
X141200000Y-83740000D03*
X148820000Y-96440000D03*
D11*
X141200000Y-81200000D03*
D10*
X136100000Y-67960000D03*
D12*
X136100000Y-70500000D03*
D13*
X153500000Y-67960000D03*
D14*
X153500000Y-70500000D03*
D15*
X155960000Y-73900000D03*
X155960000Y-76440000D03*
X155960000Y-78980000D03*
X155960000Y-81520000D03*
X155960000Y-84060000D03*
X155960000Y-86600000D03*
X155960000Y-89140000D03*
X155960000Y-91680000D03*
X133100000Y-91680000D03*
X133100000Y-89140000D03*
X133100000Y-86600000D03*
X133100000Y-84060000D03*
X133100000Y-81520000D03*
X133100000Y-78980000D03*
D16*
X133100000Y-73900000D03*
D15*
X133100000Y-76440000D03*
D17*
X153500000Y-67200000D02*
X153500000Y-67960000D01*
X153040000Y-67500000D02*
X153500000Y-67960000D01*
X136100000Y-67960000D02*
X137840000Y-67960000D01*
X137840000Y-67960000D02*
X138600000Y-67200000D01*
X152740000Y-67200000D02*
X153500000Y-67960000D01*
X138600000Y-67200000D02*
X152740000Y-67200000D01*
X153500000Y-70500000D02*
X153500000Y-70600000D01*
X148720000Y-75380000D02*
X148720000Y-76600000D01*
X153500000Y-70600000D02*
X148720000Y-75380000D01*
X148720000Y-81100000D02*
X148820000Y-81200000D01*
X148720000Y-76600000D02*
X148720000Y-81100000D01*
X148820000Y-81200000D02*
X151200000Y-81200000D01*
X151200000Y-81200000D02*
X152900000Y-82900000D01*
X152900000Y-82900000D02*
X152900000Y-88500000D01*
X153540000Y-89140000D02*
X155960000Y-89140000D01*
X152900000Y-88500000D02*
X153540000Y-89140000D01*
X133100000Y-91680000D02*
X135720000Y-91680000D01*
X135720000Y-91680000D02*
X138300000Y-89100000D01*
X138300000Y-89100000D02*
X138300000Y-84700000D01*
X138300000Y-84700000D02*
X139900000Y-83100000D01*
X139900000Y-83100000D02*
X139900000Y-81200000D01*
X139900000Y-81200000D02*
X141200000Y-81200000D01*
X148720000Y-68980000D02*
X148720000Y-71780000D01*
X148720000Y-71780000D02*
X146200000Y-74300000D01*
X146200000Y-74300000D02*
X140500000Y-74300000D01*
X140500000Y-74300000D02*
X138500000Y-76300000D01*
X134800000Y-86600000D02*
X133100000Y-86600000D01*
X138500000Y-82900000D02*
X134800000Y-86600000D01*
X141200000Y-96440000D02*
X143760000Y-96440000D01*
X143760000Y-96440000D02*
X143800000Y-96400000D01*
X143800000Y-96400000D02*
X143800000Y-79900000D01*
X142800000Y-78900000D02*
X138500000Y-78900000D01*
X143800000Y-79900000D02*
X142800000Y-78900000D01*
X138500000Y-78900000D02*
X138500000Y-82900000D01*
X138500000Y-76300000D02*
X138500000Y-78900000D01*
X146180000Y-68980000D02*
X146180000Y-70620000D01*
X146180000Y-70620000D02*
X143800000Y-73000000D01*
X143800000Y-73000000D02*
X140100000Y-73000000D01*
X140100000Y-73000000D02*
X137000000Y-76100000D01*
X137000000Y-76100000D02*
X137000000Y-81800000D01*
X134740000Y-84060000D02*
X133100000Y-84060000D01*
X137000000Y-81800000D02*
X134740000Y-84060000D01*
X143640000Y-68980000D02*
X143640000Y-70260000D01*
X143640000Y-70260000D02*
X142400000Y-71500000D01*
X142400000Y-71500000D02*
X139600000Y-71500000D01*
X139600000Y-71500000D02*
X135600000Y-75500000D01*
X135600000Y-75500000D02*
X135600000Y-80700000D01*
X134780000Y-81520000D02*
X133100000Y-81520000D01*
X135600000Y-80700000D02*
X134780000Y-81520000D01*
M02*
