M48
; DRILL file {KiCad (5.1.9)-1} date 02/11/24 16:20:14
; FORMAT={-:-/ absolute / metric / decimal}
; #@! TF.CreationDate,2024-02-11T16:20:14+01:00
; #@! TF.GenerationSoftware,Kicad,Pcbnew,(5.1.9)-1
; #@! TF.FileFunction,Plated,1,2,PTH
FMAT,2
METRIC
T1C0.800
T2C0.900
T3C1.000
%
G90
G05
T1
X136.1Y-67.96
X136.1Y-70.5
X141.1Y-68.98
X141.1Y-76.6
X141.2Y-81.2
X141.2Y-83.74
X141.2Y-86.28
X141.2Y-88.82
X141.2Y-91.36
X141.2Y-93.9
X141.2Y-96.44
X143.64Y-68.98
X143.64Y-76.6
X146.18Y-68.98
X146.18Y-76.6
X148.72Y-68.98
X148.72Y-76.6
X148.82Y-81.2
X148.82Y-83.74
X148.82Y-86.28
X148.82Y-88.82
X148.82Y-91.36
X148.82Y-93.9
X148.82Y-96.44
T2
X153.5Y-67.96
X153.5Y-70.5
T3
X133.1Y-73.9
X133.1Y-76.44
X133.1Y-78.98
X133.1Y-81.52
X133.1Y-84.06
X133.1Y-86.6
X133.1Y-89.14
X133.1Y-91.68
X155.96Y-73.9
X155.96Y-76.44
X155.96Y-78.98
X155.96Y-81.52
X155.96Y-84.06
X155.96Y-86.6
X155.96Y-89.14
X155.96Y-91.68
T0
M30
