G04 #@! TF.GenerationSoftware,KiCad,Pcbnew,(5.1.9)-1*
G04 #@! TF.CreationDate,2024-02-11T16:19:47+01:00*
G04 #@! TF.ProjectId,wemos_as_isp_0,77656d6f-735f-4617-935f-6973705f302e,rev?*
G04 #@! TF.SameCoordinates,Original*
G04 #@! TF.FileFunction,Copper,L2,Bot*
G04 #@! TF.FilePolarity,Positive*
%FSLAX46Y46*%
G04 Gerber Fmt 4.6, Leading zero omitted, Abs format (unit mm)*
G04 Created by KiCad (PCBNEW (5.1.9)-1) date 2024-02-11 16:19:47*
%MOMM*%
%LPD*%
G01*
G04 APERTURE LIST*
G04 #@! TA.AperFunction,ComponentPad*
%ADD10O,1.600000X1.600000*%
G04 #@! TD*
G04 #@! TA.AperFunction,ComponentPad*
%ADD11R,1.600000X1.600000*%
G04 #@! TD*
G04 #@! TA.AperFunction,ComponentPad*
%ADD12C,1.600000*%
G04 #@! TD*
G04 #@! TA.AperFunction,ComponentPad*
%ADD13C,1.800000*%
G04 #@! TD*
G04 #@! TA.AperFunction,ComponentPad*
%ADD14R,1.800000X1.800000*%
G04 #@! TD*
G04 #@! TA.AperFunction,ComponentPad*
%ADD15O,2.000000X1.600000*%
G04 #@! TD*
G04 #@! TA.AperFunction,ComponentPad*
%ADD16R,2.000000X2.000000*%
G04 #@! TD*
G04 #@! TA.AperFunction,Conductor*
%ADD17C,0.406400*%
G04 #@! TD*
G04 APERTURE END LIST*
D10*
X141100000Y-68980000D03*
X148720000Y-76600000D03*
X143640000Y-68980000D03*
X146180000Y-76600000D03*
X146180000Y-68980000D03*
X143640000Y-76600000D03*
X148720000Y-68980000D03*
D11*
X141100000Y-76600000D03*
D10*
X148820000Y-81200000D03*
X141200000Y-96440000D03*
X148820000Y-83740000D03*
X141200000Y-93900000D03*
X148820000Y-86280000D03*
X141200000Y-91360000D03*
X148820000Y-88820000D03*
X141200000Y-88820000D03*
X148820000Y-91360000D03*
X141200000Y-86280000D03*
X148820000Y-93900000D03*
X141200000Y-83740000D03*
X148820000Y-96440000D03*
D11*
X141200000Y-81200000D03*
D10*
X136100000Y-67960000D03*
D12*
X136100000Y-70500000D03*
D13*
X153500000Y-67960000D03*
D14*
X153500000Y-70500000D03*
D15*
X155960000Y-73900000D03*
X155960000Y-76440000D03*
X155960000Y-78980000D03*
X155960000Y-81520000D03*
X155960000Y-84060000D03*
X155960000Y-86600000D03*
X155960000Y-89140000D03*
X155960000Y-91680000D03*
X133100000Y-91680000D03*
X133100000Y-89140000D03*
X133100000Y-86600000D03*
X133100000Y-84060000D03*
X133100000Y-81520000D03*
X133100000Y-78980000D03*
D16*
X133100000Y-73900000D03*
D15*
X133100000Y-76440000D03*
D17*
X153000000Y-67460000D02*
X153500000Y-67960000D01*
X136100000Y-70500000D02*
X134700000Y-70500000D01*
X134700000Y-70500000D02*
X133600000Y-69400000D01*
X133600000Y-67100000D02*
X134400000Y-66300000D01*
X133600000Y-69400000D02*
X133600000Y-67100000D01*
X134400000Y-66300000D02*
X155800000Y-66300000D01*
X155800000Y-66300000D02*
X156100000Y-66600000D01*
X156100000Y-66600000D02*
X156100000Y-71200000D01*
X156100000Y-71200000D02*
X153400000Y-73900000D01*
X153400000Y-73900000D02*
X153400000Y-78300000D01*
X154080000Y-78980000D02*
X155960000Y-78980000D01*
X153400000Y-78300000D02*
X154080000Y-78980000D01*
X155960000Y-86600000D02*
X152600000Y-86600000D01*
X152600000Y-86600000D02*
X151700000Y-85700000D01*
X151700000Y-85700000D02*
X151700000Y-80000000D01*
X151700000Y-80000000D02*
X150600000Y-78900000D01*
X141100000Y-78500000D02*
X141100000Y-76600000D01*
X141500000Y-78900000D02*
X141100000Y-78500000D01*
X145700000Y-78900000D02*
X145700000Y-87400000D01*
X150600000Y-78900000D02*
X145700000Y-78900000D01*
X145700000Y-78900000D02*
X141500000Y-78900000D01*
X144280000Y-88820000D02*
X141200000Y-88820000D01*
X145700000Y-87400000D02*
X144280000Y-88820000D01*
X141100000Y-68980000D02*
X141100000Y-70900000D01*
X141100000Y-70900000D02*
X137700000Y-74300000D01*
X137700000Y-77700000D02*
X141200000Y-81200000D01*
X137700000Y-74300000D02*
X137700000Y-77700000D01*
X148820000Y-98280000D02*
X148820000Y-96440000D01*
X147800000Y-99300000D02*
X148820000Y-98280000D01*
X136200000Y-99300000D02*
X147800000Y-99300000D01*
X135400000Y-98500000D02*
X136200000Y-99300000D01*
X135400000Y-86360000D02*
X135400000Y-98500000D01*
X133100000Y-84060000D02*
X135400000Y-86360000D01*
X133100000Y-81520000D02*
X134520000Y-81520000D01*
X134520000Y-81520000D02*
X137300000Y-84300000D01*
X137300000Y-84300000D02*
X137300000Y-95800000D01*
X137300000Y-95800000D02*
X139600000Y-98100000D01*
X139600000Y-98100000D02*
X144700000Y-98100000D01*
X144700000Y-98100000D02*
X147000000Y-95800000D01*
X147000000Y-95800000D02*
X147000000Y-93800000D01*
X148720000Y-93800000D02*
X148820000Y-93900000D01*
X147000000Y-93800000D02*
X148720000Y-93800000D01*
M02*
