G04 #@! TF.GenerationSoftware,KiCad,Pcbnew,(5.1.9)-1*
G04 #@! TF.CreationDate,2024-02-11T16:19:47+01:00*
G04 #@! TF.ProjectId,wemos_as_isp_0,77656d6f-735f-4617-935f-6973705f302e,rev?*
G04 #@! TF.SameCoordinates,Original*
G04 #@! TF.FileFunction,Legend,Top*
G04 #@! TF.FilePolarity,Positive*
%FSLAX46Y46*%
G04 Gerber Fmt 4.6, Leading zero omitted, Abs format (unit mm)*
G04 Created by KiCad (PCBNEW (5.1.9)-1) date 2024-02-11 16:19:47*
%MOMM*%
%LPD*%
G01*
G04 APERTURE LIST*
%ADD10C,0.150000*%
%ADD11C,0.300000*%
%ADD12C,0.120000*%
G04 APERTURE END LIST*
D10*
X142923809Y-71741666D02*
X143400000Y-71741666D01*
X142828571Y-72027380D02*
X143161904Y-71027380D01*
X143495238Y-72027380D01*
X143685714Y-71027380D02*
X144257142Y-71027380D01*
X143971428Y-72027380D02*
X143971428Y-71027380D01*
X144447619Y-71360714D02*
X144828571Y-71360714D01*
X144590476Y-71027380D02*
X144590476Y-71884523D01*
X144638095Y-71979761D01*
X144733333Y-72027380D01*
X144828571Y-72027380D01*
X145161904Y-72027380D02*
X145161904Y-71360714D01*
X145161904Y-71027380D02*
X145114285Y-71075000D01*
X145161904Y-71122619D01*
X145209523Y-71075000D01*
X145161904Y-71027380D01*
X145161904Y-71122619D01*
X145638095Y-71360714D02*
X145638095Y-72027380D01*
X145638095Y-71455952D02*
X145685714Y-71408333D01*
X145780952Y-71360714D01*
X145923809Y-71360714D01*
X146019047Y-71408333D01*
X146066666Y-71503571D01*
X146066666Y-72027380D01*
X146447619Y-71360714D02*
X146685714Y-72027380D01*
X146923809Y-71360714D02*
X146685714Y-72027380D01*
X146590476Y-72265476D01*
X146542857Y-72313095D01*
X146447619Y-72360714D01*
X141185714Y-72772619D02*
X141233333Y-72725000D01*
X141328571Y-72677380D01*
X141566666Y-72677380D01*
X141661904Y-72725000D01*
X141709523Y-72772619D01*
X141757142Y-72867857D01*
X141757142Y-72963095D01*
X141709523Y-73105952D01*
X141138095Y-73677380D01*
X141757142Y-73677380D01*
X142661904Y-72677380D02*
X142185714Y-72677380D01*
X142138095Y-73153571D01*
X142185714Y-73105952D01*
X142280952Y-73058333D01*
X142519047Y-73058333D01*
X142614285Y-73105952D01*
X142661904Y-73153571D01*
X142709523Y-73248809D01*
X142709523Y-73486904D01*
X142661904Y-73582142D01*
X142614285Y-73629761D01*
X142519047Y-73677380D01*
X142280952Y-73677380D01*
X142185714Y-73629761D01*
X142138095Y-73582142D01*
X143852380Y-72629761D02*
X142995238Y-73915476D01*
X144614285Y-73010714D02*
X144614285Y-73677380D01*
X144376190Y-72629761D02*
X144138095Y-73344047D01*
X144757142Y-73344047D01*
X145614285Y-72677380D02*
X145138095Y-72677380D01*
X145090476Y-73153571D01*
X145138095Y-73105952D01*
X145233333Y-73058333D01*
X145471428Y-73058333D01*
X145566666Y-73105952D01*
X145614285Y-73153571D01*
X145661904Y-73248809D01*
X145661904Y-73486904D01*
X145614285Y-73582142D01*
X145566666Y-73629761D01*
X145471428Y-73677380D01*
X145233333Y-73677380D01*
X145138095Y-73629761D01*
X145090476Y-73582142D01*
X146804761Y-72629761D02*
X145947619Y-73915476D01*
X147280952Y-73105952D02*
X147185714Y-73058333D01*
X147138095Y-73010714D01*
X147090476Y-72915476D01*
X147090476Y-72867857D01*
X147138095Y-72772619D01*
X147185714Y-72725000D01*
X147280952Y-72677380D01*
X147471428Y-72677380D01*
X147566666Y-72725000D01*
X147614285Y-72772619D01*
X147661904Y-72867857D01*
X147661904Y-72915476D01*
X147614285Y-73010714D01*
X147566666Y-73058333D01*
X147471428Y-73105952D01*
X147280952Y-73105952D01*
X147185714Y-73153571D01*
X147138095Y-73201190D01*
X147090476Y-73296428D01*
X147090476Y-73486904D01*
X147138095Y-73582142D01*
X147185714Y-73629761D01*
X147280952Y-73677380D01*
X147471428Y-73677380D01*
X147566666Y-73629761D01*
X147614285Y-73582142D01*
X147661904Y-73486904D01*
X147661904Y-73296428D01*
X147614285Y-73201190D01*
X147566666Y-73153571D01*
X147471428Y-73105952D01*
X148566666Y-72677380D02*
X148090476Y-72677380D01*
X148042857Y-73153571D01*
X148090476Y-73105952D01*
X148185714Y-73058333D01*
X148423809Y-73058333D01*
X148519047Y-73105952D01*
X148566666Y-73153571D01*
X148614285Y-73248809D01*
X148614285Y-73486904D01*
X148566666Y-73582142D01*
X148519047Y-73629761D01*
X148423809Y-73677380D01*
X148185714Y-73677380D01*
X148090476Y-73629761D01*
X148042857Y-73582142D01*
X144833333Y-83119047D02*
X144833333Y-83595238D01*
X144547619Y-83023809D02*
X145547619Y-83357142D01*
X144547619Y-83690476D01*
X145547619Y-83880952D02*
X145547619Y-84452380D01*
X144547619Y-84166666D02*
X145547619Y-84166666D01*
X145214285Y-84642857D02*
X145214285Y-85023809D01*
X145547619Y-84785714D02*
X144690476Y-84785714D01*
X144595238Y-84833333D01*
X144547619Y-84928571D01*
X144547619Y-85023809D01*
X144547619Y-85357142D02*
X145214285Y-85357142D01*
X145547619Y-85357142D02*
X145500000Y-85309523D01*
X145452380Y-85357142D01*
X145500000Y-85404761D01*
X145547619Y-85357142D01*
X145452380Y-85357142D01*
X145214285Y-85833333D02*
X144547619Y-85833333D01*
X145119047Y-85833333D02*
X145166666Y-85880952D01*
X145214285Y-85976190D01*
X145214285Y-86119047D01*
X145166666Y-86214285D01*
X145071428Y-86261904D01*
X144547619Y-86261904D01*
X145214285Y-86642857D02*
X144547619Y-86880952D01*
X145214285Y-87119047D02*
X144547619Y-86880952D01*
X144309523Y-86785714D01*
X144261904Y-86738095D01*
X144214285Y-86642857D01*
X145452380Y-87452380D02*
X145500000Y-87500000D01*
X145547619Y-87595238D01*
X145547619Y-87833333D01*
X145500000Y-87928571D01*
X145452380Y-87976190D01*
X145357142Y-88023809D01*
X145261904Y-88023809D01*
X145119047Y-87976190D01*
X144547619Y-87404761D01*
X144547619Y-88023809D01*
X145214285Y-88880952D02*
X144547619Y-88880952D01*
X145595238Y-88642857D02*
X144880952Y-88404761D01*
X144880952Y-89023809D01*
X145595238Y-90119047D02*
X144309523Y-89261904D01*
X145214285Y-90880952D02*
X144547619Y-90880952D01*
X145595238Y-90642857D02*
X144880952Y-90404761D01*
X144880952Y-91023809D01*
X145214285Y-91833333D02*
X144547619Y-91833333D01*
X145595238Y-91595238D02*
X144880952Y-91357142D01*
X144880952Y-91976190D01*
X145595238Y-93071428D02*
X144309523Y-92214285D01*
X145119047Y-93547619D02*
X145166666Y-93452380D01*
X145214285Y-93404761D01*
X145309523Y-93357142D01*
X145357142Y-93357142D01*
X145452380Y-93404761D01*
X145500000Y-93452380D01*
X145547619Y-93547619D01*
X145547619Y-93738095D01*
X145500000Y-93833333D01*
X145452380Y-93880952D01*
X145357142Y-93928571D01*
X145309523Y-93928571D01*
X145214285Y-93880952D01*
X145166666Y-93833333D01*
X145119047Y-93738095D01*
X145119047Y-93547619D01*
X145071428Y-93452380D01*
X145023809Y-93404761D01*
X144928571Y-93357142D01*
X144738095Y-93357142D01*
X144642857Y-93404761D01*
X144595238Y-93452380D01*
X144547619Y-93547619D01*
X144547619Y-93738095D01*
X144595238Y-93833333D01*
X144642857Y-93880952D01*
X144738095Y-93928571D01*
X144928571Y-93928571D01*
X145023809Y-93880952D01*
X145071428Y-93833333D01*
X145119047Y-93738095D01*
X145214285Y-94785714D02*
X144547619Y-94785714D01*
X145595238Y-94547619D02*
X144880952Y-94309523D01*
X144880952Y-94928571D01*
D11*
X151142857Y-93242857D02*
X151428571Y-94442857D01*
X151657142Y-93585714D01*
X151885714Y-94442857D01*
X152171428Y-93242857D01*
X153085714Y-94385714D02*
X152971428Y-94442857D01*
X152742857Y-94442857D01*
X152628571Y-94385714D01*
X152571428Y-94271428D01*
X152571428Y-93814285D01*
X152628571Y-93700000D01*
X152742857Y-93642857D01*
X152971428Y-93642857D01*
X153085714Y-93700000D01*
X153142857Y-93814285D01*
X153142857Y-93928571D01*
X152571428Y-94042857D01*
X153657142Y-94442857D02*
X153657142Y-93642857D01*
X153657142Y-93757142D02*
X153714285Y-93700000D01*
X153828571Y-93642857D01*
X154000000Y-93642857D01*
X154114285Y-93700000D01*
X154171428Y-93814285D01*
X154171428Y-94442857D01*
X154171428Y-93814285D02*
X154228571Y-93700000D01*
X154342857Y-93642857D01*
X154514285Y-93642857D01*
X154628571Y-93700000D01*
X154685714Y-93814285D01*
X154685714Y-94442857D01*
X155428571Y-94442857D02*
X155314285Y-94385714D01*
X155257142Y-94328571D01*
X155200000Y-94214285D01*
X155200000Y-93871428D01*
X155257142Y-93757142D01*
X155314285Y-93700000D01*
X155428571Y-93642857D01*
X155600000Y-93642857D01*
X155714285Y-93700000D01*
X155771428Y-93757142D01*
X155828571Y-93871428D01*
X155828571Y-94214285D01*
X155771428Y-94328571D01*
X155714285Y-94385714D01*
X155600000Y-94442857D01*
X155428571Y-94442857D01*
X156285714Y-94385714D02*
X156400000Y-94442857D01*
X156628571Y-94442857D01*
X156742857Y-94385714D01*
X156800000Y-94271428D01*
X156800000Y-94214285D01*
X156742857Y-94100000D01*
X156628571Y-94042857D01*
X156457142Y-94042857D01*
X156342857Y-93985714D01*
X156285714Y-93871428D01*
X156285714Y-93814285D01*
X156342857Y-93700000D01*
X156457142Y-93642857D01*
X156628571Y-93642857D01*
X156742857Y-93700000D01*
X152000000Y-96542857D02*
X152000000Y-95914285D01*
X151942857Y-95800000D01*
X151828571Y-95742857D01*
X151600000Y-95742857D01*
X151485714Y-95800000D01*
X152000000Y-96485714D02*
X151885714Y-96542857D01*
X151600000Y-96542857D01*
X151485714Y-96485714D01*
X151428571Y-96371428D01*
X151428571Y-96257142D01*
X151485714Y-96142857D01*
X151600000Y-96085714D01*
X151885714Y-96085714D01*
X152000000Y-96028571D01*
X152514285Y-96485714D02*
X152628571Y-96542857D01*
X152857142Y-96542857D01*
X152971428Y-96485714D01*
X153028571Y-96371428D01*
X153028571Y-96314285D01*
X152971428Y-96200000D01*
X152857142Y-96142857D01*
X152685714Y-96142857D01*
X152571428Y-96085714D01*
X152514285Y-95971428D01*
X152514285Y-95914285D01*
X152571428Y-95800000D01*
X152685714Y-95742857D01*
X152857142Y-95742857D01*
X152971428Y-95800000D01*
X154457142Y-96542857D02*
X154457142Y-95742857D01*
X154457142Y-95342857D02*
X154400000Y-95400000D01*
X154457142Y-95457142D01*
X154514285Y-95400000D01*
X154457142Y-95342857D01*
X154457142Y-95457142D01*
X154971428Y-96485714D02*
X155085714Y-96542857D01*
X155314285Y-96542857D01*
X155428571Y-96485714D01*
X155485714Y-96371428D01*
X155485714Y-96314285D01*
X155428571Y-96200000D01*
X155314285Y-96142857D01*
X155142857Y-96142857D01*
X155028571Y-96085714D01*
X154971428Y-95971428D01*
X154971428Y-95914285D01*
X155028571Y-95800000D01*
X155142857Y-95742857D01*
X155314285Y-95742857D01*
X155428571Y-95800000D01*
X156000000Y-95742857D02*
X156000000Y-96942857D01*
X156000000Y-95800000D02*
X156114285Y-95742857D01*
X156342857Y-95742857D01*
X156457142Y-95800000D01*
X156514285Y-95857142D01*
X156571428Y-95971428D01*
X156571428Y-96314285D01*
X156514285Y-96428571D01*
X156457142Y-96485714D01*
X156342857Y-96542857D01*
X156114285Y-96542857D01*
X156000000Y-96485714D01*
X152085714Y-98642857D02*
X152085714Y-97842857D01*
X152085714Y-98071428D02*
X152142857Y-97957142D01*
X152200000Y-97900000D01*
X152314285Y-97842857D01*
X152428571Y-97842857D01*
X153285714Y-98585714D02*
X153171428Y-98642857D01*
X152942857Y-98642857D01*
X152828571Y-98585714D01*
X152771428Y-98471428D01*
X152771428Y-98014285D01*
X152828571Y-97900000D01*
X152942857Y-97842857D01*
X153171428Y-97842857D01*
X153285714Y-97900000D01*
X153342857Y-98014285D01*
X153342857Y-98128571D01*
X152771428Y-98242857D01*
X153742857Y-97842857D02*
X154028571Y-98642857D01*
X154314285Y-97842857D01*
X154771428Y-98528571D02*
X154828571Y-98585714D01*
X154771428Y-98642857D01*
X154714285Y-98585714D01*
X154771428Y-98528571D01*
X154771428Y-98642857D01*
X155571428Y-97442857D02*
X155685714Y-97442857D01*
X155800000Y-97500000D01*
X155857142Y-97557142D01*
X155914285Y-97671428D01*
X155971428Y-97900000D01*
X155971428Y-98185714D01*
X155914285Y-98414285D01*
X155857142Y-98528571D01*
X155800000Y-98585714D01*
X155685714Y-98642857D01*
X155571428Y-98642857D01*
X155457142Y-98585714D01*
X155400000Y-98528571D01*
X155342857Y-98414285D01*
X155285714Y-98185714D01*
X155285714Y-97900000D01*
X155342857Y-97671428D01*
X155400000Y-97557142D01*
X155457142Y-97500000D01*
X155571428Y-97442857D01*
D12*
X139770000Y-73790000D02*
X139770000Y-75440000D01*
X139770000Y-75440000D02*
X150050000Y-75440000D01*
X150050000Y-75440000D02*
X150050000Y-70140000D01*
X150050000Y-70140000D02*
X139770000Y-70140000D01*
X139770000Y-70140000D02*
X139770000Y-71790000D01*
X139710000Y-77930000D02*
X150110000Y-77930000D01*
X150110000Y-77930000D02*
X150110000Y-67650000D01*
X150110000Y-67650000D02*
X139710000Y-67650000D01*
X139710000Y-67650000D02*
X139710000Y-77930000D01*
X139770000Y-71790000D02*
G75*
G02*
X139770000Y-73790000I0J-1000000D01*
G01*
X144010000Y-79870000D02*
X142360000Y-79870000D01*
X142360000Y-79870000D02*
X142360000Y-97770000D01*
X142360000Y-97770000D02*
X147660000Y-97770000D01*
X147660000Y-97770000D02*
X147660000Y-79870000D01*
X147660000Y-79870000D02*
X146010000Y-79870000D01*
X139870000Y-79810000D02*
X139870000Y-97830000D01*
X139870000Y-97830000D02*
X150150000Y-97830000D01*
X150150000Y-97830000D02*
X150150000Y-79810000D01*
X150150000Y-79810000D02*
X139870000Y-79810000D01*
X146010000Y-79870000D02*
G75*
G02*
X144010000Y-79870000I-1000000J0D01*
G01*
X137470000Y-70500000D02*
G75*
G03*
X137470000Y-70500000I-1370000J0D01*
G01*
X136100000Y-69130000D02*
X136100000Y-69060000D01*
X152264000Y-70790000D02*
X152420000Y-70790000D01*
X154580000Y-70790000D02*
X154736000Y-70790000D01*
X154579837Y-68188870D02*
G75*
G02*
X154580000Y-70270961I-1079837J-1041130D01*
G01*
X152420163Y-68188870D02*
G75*
G03*
X152420000Y-70270961I1079837J-1041130D01*
G01*
X154578608Y-67557665D02*
G75*
G02*
X154735516Y-70790000I-1078608J-1672335D01*
G01*
X152421392Y-67557665D02*
G75*
G03*
X152264484Y-70790000I1078608J-1672335D01*
G01*
X134140000Y-93120000D02*
X134140000Y-100020000D01*
X131600000Y-93120000D02*
X134140000Y-93120000D01*
D10*
G36*
X130560000Y-73265000D02*
G01*
X130560000Y-74535000D01*
X131195000Y-73900000D01*
X130560000Y-73265000D01*
G37*
X130560000Y-73265000D02*
X130560000Y-74535000D01*
X131195000Y-73900000D01*
X130560000Y-73265000D01*
D12*
X155340000Y-65560000D02*
X133730000Y-65560000D01*
X157460000Y-100020000D02*
X157460000Y-67690000D01*
X131600000Y-93120000D02*
X131600000Y-67690000D01*
X134140000Y-100020000D02*
X157460000Y-100020000D01*
X155330000Y-65560000D02*
G75*
G02*
X157460000Y-67690000I0J-2130000D01*
G01*
X131600000Y-67690000D02*
G75*
G02*
X133730000Y-65560000I2130000J0D01*
G01*
D10*
X138222380Y-73551904D02*
X139031904Y-73551904D01*
X139127142Y-73504285D01*
X139174761Y-73456666D01*
X139222380Y-73361428D01*
X139222380Y-73170952D01*
X139174761Y-73075714D01*
X139127142Y-73028095D01*
X139031904Y-72980476D01*
X138222380Y-72980476D01*
X138222380Y-72599523D02*
X138222380Y-71980476D01*
X138603333Y-72313809D01*
X138603333Y-72170952D01*
X138650952Y-72075714D01*
X138698571Y-72028095D01*
X138793809Y-71980476D01*
X139031904Y-71980476D01*
X139127142Y-72028095D01*
X139174761Y-72075714D01*
X139222380Y-72170952D01*
X139222380Y-72456666D01*
X139174761Y-72551904D01*
X139127142Y-72599523D01*
X144248095Y-78322380D02*
X144248095Y-79131904D01*
X144295714Y-79227142D01*
X144343333Y-79274761D01*
X144438571Y-79322380D01*
X144629047Y-79322380D01*
X144724285Y-79274761D01*
X144771904Y-79227142D01*
X144819523Y-79131904D01*
X144819523Y-78322380D01*
X145248095Y-78417619D02*
X145295714Y-78370000D01*
X145390952Y-78322380D01*
X145629047Y-78322380D01*
X145724285Y-78370000D01*
X145771904Y-78417619D01*
X145819523Y-78512857D01*
X145819523Y-78608095D01*
X145771904Y-78750952D01*
X145200476Y-79322380D01*
X145819523Y-79322380D01*
X134182380Y-69396666D02*
X133706190Y-69730000D01*
X134182380Y-69968095D02*
X133182380Y-69968095D01*
X133182380Y-69587142D01*
X133230000Y-69491904D01*
X133277619Y-69444285D01*
X133372857Y-69396666D01*
X133515714Y-69396666D01*
X133610952Y-69444285D01*
X133658571Y-69491904D01*
X133706190Y-69587142D01*
X133706190Y-69968095D01*
X134182380Y-68444285D02*
X134182380Y-69015714D01*
X134182380Y-68730000D02*
X133182380Y-68730000D01*
X133325238Y-68825238D01*
X133420476Y-68920476D01*
X133468095Y-69015714D01*
X150992380Y-69968095D02*
X149992380Y-69968095D01*
X149992380Y-69730000D01*
X150040000Y-69587142D01*
X150135238Y-69491904D01*
X150230476Y-69444285D01*
X150420952Y-69396666D01*
X150563809Y-69396666D01*
X150754285Y-69444285D01*
X150849523Y-69491904D01*
X150944761Y-69587142D01*
X150992380Y-69730000D01*
X150992380Y-69968095D01*
X150992380Y-68444285D02*
X150992380Y-69015714D01*
X150992380Y-68730000D02*
X149992380Y-68730000D01*
X150135238Y-68825238D01*
X150230476Y-68920476D01*
X150278095Y-69015714D01*
X129238095Y-99452380D02*
X129238095Y-100261904D01*
X129285714Y-100357142D01*
X129333333Y-100404761D01*
X129428571Y-100452380D01*
X129619047Y-100452380D01*
X129714285Y-100404761D01*
X129761904Y-100357142D01*
X129809523Y-100261904D01*
X129809523Y-99452380D01*
X130809523Y-100452380D02*
X130238095Y-100452380D01*
X130523809Y-100452380D02*
X130523809Y-99452380D01*
X130428571Y-99595238D01*
X130333333Y-99690476D01*
X130238095Y-99738095D01*
M02*
